<?xml version="1.0" encoding="utf-8"?>
<!-- Generator: Adobe Illustrator 17.0.0, SVG Export Plug-In . SVG Version: 6.00 Build 0)  -->
<!DOCTYPE svg PUBLIC "-//W3C//DTD SVG 1.1//EN" "http://www.w3.org/Graphics/SVG/1.1/DTD/svg11.dtd">
<svg version="1.1" id="Capa_1" xmlns="http://www.w3.org/2000/svg" xmlns:xlink="http://www.w3.org/1999/xlink" x="0px" y="0px"
	 width="512px" height="512px" viewBox="-49 141 512 512" enable-background="new -49 141 512 512" xml:space="preserve">
<g>
	<path fill="#FFFFFF" d="M461.006,368.024c-1.781-3.737-5.532-6.111-9.687-6.111h-31.571
		C399.619,252.872,303.962,170.02,189.175,170.02c-129.278,0-234.473,105.195-234.473,234.473
		c0,129.332,105.195,234.527,234.473,234.527c83.473,0,161.267-44.901,203.118-117.216c5.896-10.16,2.415-23.233-7.811-29.142
		c-10.159-5.896-23.233-2.415-29.088,7.798c-34.256,59.134-97.923,95.926-166.218,95.926C83.4,596.385-2.664,510.321-2.664,404.492
		c0-105.775,86.064-191.839,191.839-191.839c91.123,0,167.486,63.937,186.928,149.205h-31.354c-4.156,0-7.907,2.428-9.647,6.166
		c-1.794,3.737-1.214,8.163,1.484,11.333l53.279,63.978c1.997,2.428,5.006,3.791,8.163,3.791c3.17,0,6.166-1.363,8.176-3.791
		l53.333-63.978C462.166,376.187,462.747,371.761,461.006,368.024L461.006,368.024z M461.006,368.024"/>
	<path fill="#FFFFFF" d="M189.175,223.298c-11.751,0-21.29,9.539-21.29,21.344v129.332c-9.647,6.746-15.974,17.931-15.974,30.518
		c0,20.602,16.702,37.318,37.318,37.318c5.639,0,10.901-1.322,15.704-3.589l74.151,42.796c3.373,1.956,7.002,2.9,10.645,2.9
		c7.38,0,14.544-3.845,18.497-10.699c5.855-10.173,2.374-23.193-7.798-29.089l-74.258-42.849
		c-0.998-11.279-6.854-21.142-15.65-27.307V244.642C210.519,232.891,200.98,223.298,189.175,223.298L189.175,223.298z
		 M189.175,420.521c-8.797,0-15.974-7.178-15.974-16.028c0-8.796,7.178-15.96,15.974-15.96c8.851,0,16.014,7.164,16.014,15.96
		C205.189,413.343,198.025,420.521,189.175,420.521L189.175,420.521z M189.175,420.521"/>
</g>
</svg>
