<?xml version="1.0" encoding="utf-8"?>
<!-- Generator: Adobe Illustrator 17.0.0, SVG Export Plug-In . SVG Version: 6.00 Build 0)  -->
<!DOCTYPE svg PUBLIC "-//W3C//DTD SVG 1.1//EN" "http://www.w3.org/Graphics/SVG/1.1/DTD/svg11.dtd">
<svg version="1.1" id="Capa_1" xmlns="http://www.w3.org/2000/svg" xmlns:xlink="http://www.w3.org/1999/xlink" x="0px" y="0px"
	 width="512px" height="512px" viewBox="-49 141 512 512" enable-background="new -49 141 512 512" xml:space="preserve">
<path fill="#FFFFFF" d="M461.985,482.788c-3.1-12.511-12.822-22.104-25.372-25.034c-7.11-1.662-14.568-0.941-21.191,1.877
	c-0.634-0.486-1.329-0.912-2.095-1.244l-6.459-2.806c-21.437-9.313-46.275-6.261-64.818,7.968l-75.732,58.104
	c-3.386-4.155-7.71-7.531-12.7-9.789l-70.754-32.017c-25.795-11.672-55.061-14.066-82.405-6.739L38.81,489.622V483
	c0-5.522-4.478-10-10-10H-39c-5.522,0-10,4.478-10,10v160c0,5.522,4.478,10,10,10h282.847c32.595,0,64.098-11.771,88.706-33.146
	l37.796-32.828c4.17-3.622,4.613-9.938,0.992-14.107c-3.622-4.17-9.938-4.614-14.107-0.992l-37.796,32.828
	C298.468,622.969,271.623,633,243.847,633H38.81V510.327l66.823-17.9c22.893-6.132,47.394-4.129,68.984,5.642l70.755,32.017
	c3.98,1.802,6.879,5.094,8.161,9.271s0.729,8.529-1.556,12.255c-3.462,5.641-10.341,8.374-16.726,6.636l-88.885-24.122
	c-5.328-1.441-10.823,1.702-12.271,7.032c-1.446,5.33,1.702,10.823,7.032,12.271l88.884,24.121c2.999,0.814,6.044,1.207,9.061,1.206
	c0.295,0,0.589-0.021,0.884-0.028c0.313,0.029,0.629,0.048,0.949,0.048h25.18c21.616,0,42.723-7.552,59.431-21.265l94.359-77.441
	c3.376-2.772,7.932-3.837,12.187-2.839c5.277,1.232,9.205,5.108,10.509,10.368c1.303,5.26-0.361,10.521-4.452,14.075l-26.482,23.001
	c-4.17,3.621-4.614,9.938-0.992,14.107c3.622,4.169,9.938,4.614,14.107,0.992l26.482-23.001
	C460.965,508.32,465.084,495.298,461.985,482.788z M-29,493h47.81v140H-29V493z M312.83,542.05
	c-11.9,9.766-26.638,15.542-41.94,16.549c2.59-5.535,3.68-11.638,3.186-17.69l80.148-61.493
	c12.191-9.353,28.321-11.679,42.607-6.307L312.83,542.05z"/>
<path fill="#FFFFFF" d="M390.02,546.689c-2.63,0-5.21,1.07-7.069,2.931c-1.86,1.859-2.931,4.439-2.931,7.069s1.07,5.21,2.931,7.07
	c1.859,1.86,4.439,2.93,7.069,2.93c2.641,0,5.221-1.069,7.07-2.93c1.86-1.86,2.93-4.44,2.93-7.07s-1.069-5.21-2.93-7.069
	C395.23,547.76,392.661,546.689,390.02,546.689z"/>
<path fill="#FFFFFF" d="M207,449c66.168,0,120-53.696,120-119.698c0-27.358-9.492-54.091-26.732-75.312
	c-0.025-0.034-0.052-0.067-0.078-0.102l-85.314-109.05c-1.894-2.422-4.798-3.838-7.875-3.838H207c-3.075,0-5.979,1.415-7.875,3.836
	l-84.907,108.479c-0.159,0.204-0.31,0.413-0.451,0.626C96.498,275.179,87,301.896,87,329.302C87,395.304,140.832,449,207,449z
	 M129.858,265.859c0.276-0.333,0.527-0.681,0.754-1.039l76.387-97.594l77.232,98.722c0.107,0.146,0.218,0.29,0.333,0.431
	C299.033,284.081,307,306.428,307,329.302C307,384.275,262.141,429,207,429s-100-44.725-100-99.698
	C107,306.183,115.119,283.651,129.858,265.859z"/>
<path fill="#FFFFFF" d="M244.646,395.652c1.904,0,3.829-0.543,5.532-1.677c21.731-14.465,34.706-38.642,34.706-64.674
	c0-5.522-4.478-10-10-10s-10,4.478-10,10c0,19.323-9.641,37.277-25.788,48.025c-4.598,3.06-5.844,9.268-2.783,13.865
	C238.239,394.087,241.413,395.652,244.646,395.652z"/>
<path fill="#FFFFFF" d="M207,407c0.383,0,0.766-0.002,1.147-0.008c5.522-0.081,9.934-4.623,9.853-10.146
	c-0.08-5.522-4.585-9.944-10.146-9.853C207.571,386.998,207.286,387,207,387c-5.522,0-10,4.478-10,10S201.478,407,207,407z"/>
</svg>
