<?xml version="1.0" encoding="utf-8"?>
<!-- Generator: Adobe Illustrator 17.0.0, SVG Export Plug-In . SVG Version: 6.00 Build 0)  -->
<!DOCTYPE svg PUBLIC "-//W3C//DTD SVG 1.1//EN" "http://www.w3.org/Graphics/SVG/1.1/DTD/svg11.dtd">
<svg version="1.1" id="Layer_1" xmlns="http://www.w3.org/2000/svg" xmlns:xlink="http://www.w3.org/1999/xlink" x="0px" y="0px"
	 width="358px" height="94.675px" viewBox="0 0 358 94.675" enable-background="new 0 0 358 94.675" xml:space="preserve">
<g>
	<g>
		<g>
			<path fill="#BCBEC0" d="M7.691,67.094C19.243,48.533,41.45,36.244,62.285,31.971c10.398-2.133,21.117-2.224,31.636-1.059
				c13.762,1.525,26.7,6.327,40.05,9.698c27.629,6.976,56.519,9.651,84.932,7.289c26.763-2.225,55.433-9.396,76.209-27.303
				c0.82-0.707,0.495-3.579,0.495-4.5c0-0.303-0.466-4.525-0.495-4.5c-16.958,14.616-39.055,21.728-60.8,25.386
				c-27.337,4.598-55.613,3.257-82.809-1.599c-26.091-4.658-50.508-15.721-77.475-13.98c-16.919,1.092-33.245,7.085-46.953,17.017
				c-7.397,5.36-14.771,12.16-19.647,19.995c-0.793,1.275-0.388,4.133-0.346,5.536C7.091,64.233,7.385,67.586,7.691,67.094
				L7.691,67.094z"/>
		</g>
		<g>
			<path fill="#00B7CE" d="M35.666,45.091c8.529,7.667,22.663,8.218,33.286,6.895c14.308-1.781,27.155-8.743,40.329-14.104
				c11.548-4.699,23.43-8.555,35.857-9.986c25.14-2.894,48.816,5.876,71.708,15.011c10.643,4.247,21.453,8.016,32.848,9.59
				c13.147,1.816,26.304-0.235,38.734-4.648c1.553-0.551-0.231-8.918,0-9c-12.099,4.296-24.534,6.141-37.333,4.818
				c-11.418-1.181-22.365-5.085-32.982-9.257c-23.168-9.103-46.15-17.779-71.559-15.654c-12.363,1.034-24.261,4.99-35.733,9.51
				c-13.408,5.282-26.12,12.137-40.481,14.519c-10.873,1.803-25.898,1.195-34.674-6.694c-0.011-0.01-0.495,4.185-0.495,4.5
				C35.171,41.538,34.847,44.355,35.666,45.091L35.666,45.091z"/>
		</g>
	</g>
	<g>
		<path fill="#414042" d="M155.559,65.676c-0.729-0.45-1.592-0.768-2.592-0.952c-0.998-0.185-2.17-0.276-3.514-0.276h-7.391
			l-4.744,20.561h5.328l1.091-5.022h2.02c3.646,0,6.913-0.447,8.975-2.292c1.881-1.682,3.035-5.108,3.035-7.557
			c0-1.077-0.189-1.978-0.566-2.7S156.276,66.128,155.559,65.676z M150.3,75.153c-0.872,0.693-2.154,0.987-3.768,0.987l-2.511,2.039
			l2.483-9.892h2.145c1.143,0,2.006,0.193,2.586,0.58c0.582,0.387,0.873,0.98,0.873,1.781
			C152.108,71.863,151.702,74.038,150.3,75.153z"/>
		<path fill="#414042" d="M175.352,77.259c-0.313,1.362-0.83,2.365-1.555,3.01c-0.723,0.645-1.668,0.967-2.838,0.967
			c-1.205,0-2.068-0.224-2.59-0.67c-0.52-0.446-0.779-1.103-0.779-1.968c0-0.202,0.02-0.458,0.063-0.767
			c0.041-0.308,0.094-0.591,0.158-0.85l2.879-12.534h-5.344l-2.955,12.731c-0.074,0.341-0.143,0.718-0.207,1.132
			s-0.096,0.824-0.096,1.229c0,1.97,0.693,3.44,2.084,4.411c1.391,0.972,3.439,1.457,6.145,1.457c3.039,0,5.357-0.643,6.961-1.927
			c1.602-1.284,2.738-3.348,3.41-6.192l2.98-12.842h-5.357L175.352,77.259z"/>
		<path fill="#414042" d="M205.469,76.528c1.093-1.508,1.852-5.254,1.852-6.902c0-1.748-0.688-3.049-2.059-3.9
			c-1.373-0.852-3.316-1.277-5.83-1.277h-8.025l-4.744,20.561h5.301l1.11-4.835h3.131l3.599,4.835h6.674l-5.388-5.981
			C203.037,78.694,204.428,77.965,205.469,76.528z M199.808,75.612c-0.723,0.633-1.833,0.707-3.239,0.707h-2.609l1.885-8.075h2.625
			c1.031,0,1.811,0.173,2.34,0.517c0.529,0.345,0.795,0.931,0.795,1.757C201.604,71.537,200.928,74.632,199.808,75.612z"/>
		<polygon fill="#414042" points="211.612,85.008 226.51,85.008 227.395,81.1 217.813,81.1 218.918,76.236 227.812,76.236 
			228.723,72.329 219.824,72.329 220.766,68.356 230.364,68.356 231.26,64.448 216.356,64.448 		"/>
		<polygon fill="#414042" points="273.987,64.448 267.642,77.236 267.075,64.448 261.776,64.448 254.88,77.236 254.844,64.448 
			249.301,64.448 250.241,85.008 256.157,85.008 262.819,71.369 263.704,85.008 269.405,85.008 279.389,64.448 		"/>
		<polygon fill="#414042" points="291.221,64.448 278.889,85.008 284.444,85.008 293.157,69.784 294.856,85.008 300.21,85.008 
			297.35,64.448 		"/>
		<path fill="#414042" d="M317.868,64.075c-3.158,0-5.645,0.615-7.463,1.844s-2.729,2.874-2.729,4.937
			c0,0.819,0.146,1.523,0.436,2.112c0.291,0.589,0.717,1.109,1.277,1.561c0.563,0.441,1.24,0.824,2.037,1.146
			c0.797,0.323,1.695,0.622,2.699,0.898c0.912,0.258,1.654,0.485,2.23,0.683c0.574,0.198,1.029,0.398,1.359,0.602
			c0.332,0.202,0.555,0.407,0.67,0.614s0.172,0.453,0.172,0.738c0,0.765-0.354,1.352-1.063,1.761
			c-0.709,0.41-1.818,0.614-3.328,0.614c-1.473,0-2.85-0.236-4.129-0.711c-1.279-0.474-2.393-1.144-3.34-2.009h-0.58l-1.064,4.929
			c1.004,0.451,2.193,0.829,3.57,1.133c1.375,0.304,2.943,0.456,4.701,0.456c1.584,0,3-0.139,4.252-0.415
			c1.252-0.275,2.371-0.713,3.355-1.312c0.939-0.562,1.676-1.293,2.211-2.195c0.533-0.902,0.801-1.947,0.801-3.135
			c0-1.417-0.494-2.54-1.479-3.369c-0.984-0.828-2.629-1.551-4.93-2.168c-0.855-0.229-1.602-0.453-2.236-0.669
			c-0.635-0.217-1.1-0.417-1.395-0.602c-0.34-0.202-0.566-0.409-0.676-0.621c-0.111-0.212-0.166-0.479-0.166-0.801
			c0-0.695,0.373-1.239,1.117-1.633c0.746-0.394,1.801-0.59,3.162-0.59c1.391,0,2.672,0.222,3.846,0.665
			c1.174,0.444,2.119,0.995,2.838,1.654h0.566l1.008-4.736c-0.939-0.423-2.082-0.759-3.432-1.008
			C320.821,64.2,319.387,64.075,317.868,64.075z"/>
		<polygon fill="#414042" points="346.565,64.448 344.485,73.329 336.674,73.329 338.762,64.448 333.434,64.448 328.69,85.008 
			334.018,85.008 335.772,77.236 343.585,77.236 341.823,85.008 347.151,85.008 351.893,64.448 		"/>
		<path fill="#00B7CE" d="M287.883,85.779c0,1.059,0.858,1.917,1.917,1.917s1.917-0.858,1.917-1.917s-0.875-5.083-0.875-5.083
			S287.883,84.721,287.883,85.779z"/>
	</g>
</g>
</svg>
